<?xml version="1.0" standalone="no"?>
<!DOCTYPE svg PUBLIC "-//W3C//DTD SVG 20010904//EN"
 "http://www.w3.org/TR/2001/REC-SVG-20010904/DTD/svg10.dtd">
<svg version="1.0" xmlns="http://www.w3.org/2000/svg"
 width="512.000000pt" height="512.000000pt" viewBox="0 0 512.000000 512.000000"
 preserveAspectRatio="xMidYMid meet">

<g transform="translate(0.000000,512.000000) scale(0.100000,-0.100000)"
fill="#000000" stroke="none">
<path d="M3578 5010 c-87 -16 -163 -42 -248 -86 -191 -98 -330 -261 -399 -469
l-30 -90 -1270 -5 -1270 -5 -28 -21 c-89 -67 -89 -201 0 -268 l28 -21 1270 -5
1270 -5 29 -88 c35 -103 49 -131 103 -211 117 -174 316 -302 531 -343 96 -18
258 -13 351 13 266 71 478 271 569 537 l32 92 121 5 c103 4 126 8 150 26 69
52 87 152 40 223 -38 58 -76 71 -204 71 l-108 0 -28 89 c-83 262 -303 472
-572 545 -70 19 -269 29 -337 16z m257 -335 c86 -23 152 -62 222 -131 218
-220 181 -580 -78 -753 -267 -179 -635 -50 -738 257 -29 84 -29 220 0 304 83
247 342 388 594 323z"/>
<path d="M1305 3374 c-11 -3 -51 -12 -90 -21 -264 -60 -486 -264 -579 -536
l-32 -92 -120 -5 c-133 -6 -168 -20 -201 -83 -21 -41 -21 -113 0 -154 33 -63
68 -77 201 -83 l120 -5 32 -92 c46 -134 103 -224 203 -323 117 -115 217 -172
382 -217 89 -24 299 -24 389 1 203 56 378 180 484 344 50 76 69 117 101 217
l23 70 1269 5 1268 5 33 23 c43 31 64 75 64 132 0 57 -21 101 -64 132 l-33 23
-1268 5 -1267 5 -34 97 c-90 262 -291 453 -558 529 -71 20 -276 35 -323 23z
m231 -338 c138 -37 257 -138 322 -273 37 -77 37 -79 37 -204 l0 -125 -42 -86
c-107 -215 -339 -322 -568 -263 -210 55 -365 257 -365 475 0 216 154 419 361
474 69 19 189 20 255 2z"/>
<path d="M2915 1729 c-310 -61 -551 -272 -642 -560 l-28 -89 -935 0 -935 0
-38 -25 c-93 -64 -96 -202 -5 -267 l33 -23 940 -3 940 -2 28 -89 c84 -264 302
-471 577 -547 100 -28 310 -26 414 4 270 77 475 271 562 531 l32 96 449 5
c415 5 450 6 475 24 92 62 95 204 6 268 l-33 23 -448 5 -447 5 -34 97 c-89
259 -294 453 -558 528 -85 24 -275 35 -353 19z m258 -334 c165 -43 292 -163
347 -326 18 -53 21 -81 18 -169 -3 -97 -6 -111 -40 -183 -105 -220 -341 -332
-573 -272 -254 67 -417 343 -350 594 46 173 180 309 352 356 66 18 177 18 246
0z"/>
</g>
</svg>
